PathFileType	4	(X/Y/Z)	Patient4_TMGait_0pt4_02_right_41.trc.trc
DataRate	CameraRate	NumFrames	NumMarkers	Units	OrigDataRate	OrigDataStartFrame	OrigNumFrames
78.651685393258	78.651685393258	6	33	mm	78.651685393258	89	       141
Frame#	Time	Sacral			L.Shoulder			Chest			R.Shoulder			Neck			R.ASIS			L.ASIS			R.Thigh.Superior			R.Thigh.Lateral			R.Thigh.Inferior			R.Patella			L.Thigh.Superior			L.Thigh.Lateral			L.Thigh.Inferior			L.Patella			L.Shank.Superior			L.Shank.Lateral			L.Shank.Inferior			R.Shank.Superior			R.Shank.Lateral			R.Shank.Inferior			R.Heel			R.Midfoot.Superior			R.Midfoot.Lateral			R.Toe			L.Heel			L.Midfoot.Lateral			L.Midfoot.Superior			L.Toe			L.Elbow			L.Wrist			R.Elbow			R.Wrist			
		X1	Y1	Z1	X2	Y2	Z2	X3	Y3	Z3	X4	Y4	Z4	X5	Y5	Z5	X6	Y6	Z6	X7	Y7	Z7	X8	Y8	Z8	X9	Y9	Z9	X10	Y10	Z10	X11	Y11	Z11	X12	Y12	Z12	X13	Y13	Z13	X14	Y14	Z14	X15	Y15	Z15	X16	Y16	Z16	X17	Y17	Z17	X18	Y18	Z18	X19	Y19	Z19	X20	Y20	Z20	X21	Y21	Z21	X22	Y22	Z22	X23	Y23	Z23	X24	Y24	Z24	X25	Y25	Z25	X26	Y26	Z26	X27	Y27	Z27	X28	Y28	Z28	X29	Y29	Z29	X30	Y30	Z30	X31	Y31	Z31	X32	Y32	Z32	X33	Y33	Z33	

89	55.188857142857	884.699564036253	998.278693190661	476.699527057546	1034.022637027387	1430.820482656798	282.007690356668	1150.372319860143	1367.645611825119	435.693506928234	1078.080448107838	1438.691971137436	615.416954690225	1025.466950994793	1494.006063496798	438.836467712971	1122.262478261751	938.206319387865	575.679464157516	1090.307824262121	966.059891731013	304.129854796397	1181.438042862708	742.967023193821	547.411334316014	1119.962477590386	627.917214907672	619.949651943480	1200.401072263850	576.022889621180	539.871624382768	1201.429856129323	465.941534040460	561.362984457810	1157.334991787467	758.995843125057	335.803191347564	1079.569922698221	635.348174481503	279.025602920735	1169.315325155817	565.527110458680	343.510345944829	1174.546725901759	496.213816322967	354.752164278884	1151.173017943530	422.166827353995	347.174375345084	1068.420108520494	304.176024738877	294.271665071119	1119.469559624545	195.068801287219	368.320445938808	1123.903073701845	396.441638307080	574.076364135883	1006.603911391019	360.507026685150	644.517389007836	984.699678518174	252.614765031061	597.138688768536	779.764020596829	197.466906971459	587.733844996909	949.114586430373	133.946831155658	614.727031569841	842.625919975511	135.980449035211	655.673023499218	1012.357173805608	30.654777144793	634.414611583696	994.286631860703	38.377077763043	406.279590034380	1070.552577676230	36.097747020748	327.747973299107	1152.932882011851	96.717121396848	358.162543764394	1282.466295149014	44.561137467615	333.418376473376	996.870404626958	1078.181211581956	167.390487079154	1096.449033606671	835.425442110592	163.980167376844	1142.120677036363	1090.116531902012	716.314282544526	1358.263292469987	1007.079619517643	608.202204587188	
90	55.201571428571	883.793047741914	998.049394037856	473.984467218810	1034.532278597855	1431.225090660742	280.267387191287	1149.661486085370	1367.822538870376	434.812088187813	1075.903806056811	1438.284020558360	614.198179879713	1024.837802470770	1494.158323179344	437.301034685935	1121.296399919555	938.746628716898	574.152561147940	1090.510328689306	966.178193170916	302.454477477762	1184.780873695316	746.137694700051	545.758676768935	1126.156213920508	630.054466938924	618.570656840687	1207.982702695843	579.682657548763	538.636931085920	1210.813278342306	468.944187368359	560.144021684081	1156.677209851676	758.383516104818	333.981189250631	1078.149861777253	635.116772518699	277.589458486670	1167.450422032836	564.880253608334	342.209537037269	1172.248687092696	495.526879007662	353.727032365744	1148.472416998214	421.516662963045	346.334010497341	1065.099146716633	303.901153821201	293.629193316049	1115.200447097813	194.704321936570	368.051531146501	1132.461597140016	399.403075628400	572.907335509860	1014.553088269109	365.795951600637	643.549610274273	990.850334240593	258.045478909468	596.700751254241	785.375056197503	208.841294822037	587.758164205786	952.744503599602	139.011101971624	614.474943827270	846.162577427625	144.921991895194	655.544751538505	1011.745020395055	30.550238101020	634.082485340252	989.197751546734	38.388338977181	406.208430261713	1065.459696865693	36.063756304753	327.661476518012	1147.920934707129	96.602636815511	358.103992600655	1277.428518189882	44.258112957719	333.366936276967	1004.609104719560	1078.652144205943	162.836307288732	1114.031275887562	839.973708722363	160.569654165581	1134.684966553833	1088.433762375270	715.395535669522	1346.737993097291	987.554251865392	612.686233331057	
91	55.214285714286	882.847628548252	997.842424701061	471.441089668400	1034.928071702041	1431.650080755818	278.679630425642	1148.894064911815	1368.003553975084	434.014379340100	1073.743847935894	1437.863251198923	613.082548958510	1024.202840208106	1494.322513191101	435.911695020578	1120.258732489134	939.372116319759	572.691659965078	1090.574812531268	966.269253965124	300.850442783589	1187.671601909212	749.393354791960	544.046742168524	1131.945774555682	632.429732901323	617.307341665262	1214.972298129318	583.573539693402	537.442159083376	1219.759154318628	472.272142017588	559.036803488782	1156.045802776280	757.811834790734	332.166845233669	1076.655704023049	634.888587183076	276.297546722037	1165.587240906431	564.243562385117	340.977607934798	1169.981355760917	494.856222139427	352.806895493067	1145.788010938173	420.882601637412	345.594508197625	1061.781135846356	303.663265658956	293.057798602606	1110.947264049850	194.354430563908	367.810195086430	1140.791694871344	402.559164624259	571.850515055923	1022.433871449682	370.777183394843	642.655885599370	997.332743118228	263.114174894662	596.235711318412	791.584783755161	218.491832364442	587.659978404645	957.316288811924	143.828897265619	614.146983798896	850.743717010237	152.733364521430	655.328895199962	1012.912773689909	30.900501136962	633.727669739209	984.107976760738	38.411306779292	406.132870439096	1060.370286610151	36.047009000925	327.575524946146	1142.906661385366	96.511425598474	358.042193733732	1272.386434766028	43.986101386427	333.312681455222	1012.582028561804	1079.327419006899	158.458398582784	1131.439925524835	845.051991359019	157.492905176570	1127.099195421909	1086.782159452265	714.579151669970	1333.658856009787	968.198098093189	618.117317977058	
92	55.227000000000	881.889778732005	997.683665287770	469.062155712045	1035.227765454747	1432.121587713622	277.239582481299	1148.084797818612	1368.214155769387	433.295595242776	1071.612622635804	1437.460277356734	612.060943017123	1023.574787983758	1494.520636861713	434.653928462387	1119.160922533679	940.103468926540	571.320201511415	1090.513601284929	966.334542361787	299.332228659888	1190.114343804204	752.710127486091	542.316088624338	1137.299092318917	635.023220291448	616.187761850069	1221.342186231251	587.651378197701	536.318396752443	1228.223956991322	475.900652218075	558.091349563774	1155.398833060752	757.270623044161	330.432928901688	1075.082807762379	634.674792531555	275.152402399837	1163.673857064682	563.617058423707	339.859394570790	1167.680624797147	494.204572071345	352.012704374109	1143.067068200535	420.273550457862	344.962307290642	1058.434160885819	303.458985881925	292.555979468563	1106.688067479974	194.023178965394	367.602408192687	1148.882664131427	405.859181375929	570.955267791619	1030.217542075726	375.309338797166	641.849792925593	1004.227487148529	267.637647729336	595.773839245936	798.427041725774	226.004271097705	587.422781010034	963.015644911199	148.159808323126	613.787782010550	856.489591924843	159.056521880794	655.036753113522	1016.231205588740	31.696567319169	633.398141256541	979.014295895395	38.441818408856	406.054950185438	1055.282739004059	36.043496612276	327.492280413868	1137.885765724234	96.443640158900	357.978023925111	1267.338224260653	43.749435019105	333.257689103024	1020.712657910947	1080.236982481697	154.296676528641	1148.596629512870	850.660534779845	154.786452501256	1119.367609255783	1085.220486238969	713.895116851685	1318.998472628056	949.248380097382	624.511409259193	
93	55.239714285714	880.935804513137	997.592735093825	466.834536583520	1035.467349169340	1432.658703018264	275.937744430485	1147.252800220884	1368.469166019510	432.656923659801	1069.517091222666	1437.096872942300	611.126239245936	1022.969242998077	1494.768287521382	433.514753628519	1118.011812958387	940.950042339297	570.067256380073	1090.337232043737	966.371358992218	297.917202470528	1192.134211459513	756.062479659959	540.625009525421	1142.195860426343	637.803453147990	615.243054257016	1227.081757371870	591.861419530751	535.302692617414	1236.167723876568	479.797174380898	557.344628127562	1154.684715385840	756.752263660924	328.861292841928	1073.425895253871	634.486054382581	274.147252204211	1161.656678517569	563.002558431962	338.889821055361	1165.279764140234	493.574753307017	351.352076950722	1140.255006477370	419.697373432371	344.433579892491	1055.023142704705	303.282827592803	292.116554349871	1102.398852937458	193.713468612654	367.428805773798	1156.730378701352	409.243565608746	570.257409181523	1037.897371842370	379.246418299004	641.146119924585	1011.626710400256	271.439806356577	595.348069999398	805.972254696718	231.050590669098	587.042972075676	970.017509392634	151.774973738927	613.453554303818	863.519995374720	163.599477384347	654.696123043519	1022.001526532443	32.851812554875	633.166928235146	973.913543289700	38.475795042020	405.976719876194	1050.195022026014	36.048328607862	327.413247825580	1132.854549183112	96.397125242690	357.911683503281	1262.282421759154	43.548878551740	333.203681532398	1028.903319215472	1081.397275593808	150.384292573471	1165.425701818404	856.797953344361	152.472172369902	1111.493065085215	1083.803926189236	713.372315078799	1302.778699461125	930.968823455771	631.846252840535	
94	55.252428571429	879.991234389006	997.581874938742	464.741465560540	1035.696097354411	1433.272107789333	274.763079738091	1146.420463976237	1368.771561910607	432.105171309130	1067.461594619186	1436.785143839071	610.274139082466	1022.404268028918	1495.073583184842	432.484481552590	1116.814961128154	941.907874265924	568.958933594204	1090.054939048442	966.375985853486	296.623628599417	1193.768592188565	759.422312342937	539.039314589289	1146.623979469285	640.727544329732	614.502671522794	1232.191128807002	596.138819745081	534.431729234606	1243.550566948005	483.919769259602	556.819996513367	1153.852178032925	756.252916378930	327.527894267055	1071.677428569268	634.331604888372	273.268132270341	1159.486984768633	562.403326582385	338.088537493470	1162.717651455003	492.969817173519	350.819317758147	1137.302330413715	419.160371168796	343.995834687306	1051.514537747379	303.128705871638	291.728272952560	1098.057167589965	193.427296076584	367.285076065566	1164.330669335875	412.648005762771	569.780224943123	1045.481798310927	382.452276268444	640.561976713430	1019.619987955250	274.369357281273	594.995027231415	814.320278803175	233.414254179173	586.534421384434	978.466983204832	154.478323007664	613.209836599375	871.942583565320	166.159064032347	654.351403842082	1030.420982207472	34.217157656829	633.126703937984	968.803089941242	38.509784306544	405.899858841388	1045.105129856307	36.056606342598	327.339116086496	1127.810186153685	96.368363205835	357.842855449276	1257.218132469304	43.382707031864	333.151730695678	1037.043999590021	1082.808676157690	146.746178931055	1181.854545043356	863.458671566397	150.555822631405	1103.472349434533	1082.580629665463	713.036176599019	1285.077531640017	913.640955318357	640.051413138438	
